<svg width="50" height="50" viewBox="0 0 50 50" fill="none" xmlns="http://www.w3.org/2000/svg">
<circle cx="25" cy="25" r="25" fill="#E0E0E0"/>
<path d="M35 37V34.3333C35 32.9188 34.4732 31.5623 33.5355 30.5621C32.5979 29.5619 31.3261 29 30 29H20C18.6739 29 17.4021 29.5619 16.4645 30.5621C15.5268 31.5623 15 32.9188 15 34.3333V37" stroke="#252525" stroke-width="3" stroke-linecap="round" stroke-linejoin="round"/>
<path d="M25 24C27.7614 24 30 21.7614 30 19C30 16.2386 27.7614 14 25 14C22.2386 14 20 16.2386 20 19C20 21.7614 22.2386 24 25 24Z" stroke="#252525" stroke-width="3" stroke-linecap="round" stroke-linejoin="round"/>
</svg>
