<svg width="20" height="16" viewBox="0 0 20 16" fill="none" xmlns="http://www.w3.org/2000/svg">
<path d="M1.875 0C1.50416 0 1.14165 0.108275 0.833307 0.311133C0.524964 0.513991 0.284641 0.802321 0.142727 1.13966C0.000812411 1.477 -0.0363188 1.8482 0.0360284 2.20632C0.108376 2.56444 0.286952 2.89339 0.549176 3.15158C0.811399 3.40977 1.14549 3.5856 1.50921 3.65683C1.87292 3.72807 2.24992 3.69151 2.59253 3.55178C2.93514 3.41205 3.22798 3.17542 3.43401 2.87182C3.64003 2.56822 3.75 2.21129 3.75 1.84615C3.75 1.35652 3.55246 0.886947 3.20083 0.540726C2.8492 0.194505 2.37228 0 1.875 0ZM1.875 6.15385C1.50416 6.15385 1.14165 6.26212 0.833307 6.46498C0.524964 6.66784 0.284641 6.95617 0.142727 7.29351C0.000812411 7.63085 -0.0363188 8.00205 0.0360284 8.36017C0.108376 8.71829 0.286952 9.04724 0.549176 9.30543C0.811399 9.56362 1.14549 9.73945 1.50921 9.81068C1.87292 9.88191 2.24992 9.84535 2.59253 9.70562C2.93514 9.56589 3.22798 9.32927 3.43401 9.02567C3.64003 8.72207 3.75 8.36513 3.75 8C3.75 7.51037 3.55246 7.04079 3.20083 6.69457C2.8492 6.34835 2.37228 6.15385 1.875 6.15385ZM1.875 12.3077C1.50416 12.3077 1.14165 12.416 0.833307 12.6188C0.524964 12.8217 0.284641 13.11 0.142727 13.4474C0.000812411 13.7847 -0.0363188 14.1559 0.0360284 14.514C0.108376 14.8721 0.286952 15.2011 0.549176 15.4593C0.811399 15.7175 1.14549 15.8933 1.50921 15.9645C1.87292 16.0358 2.24992 15.9992 2.59253 15.8595C2.93514 15.7197 3.22798 15.4831 3.43401 15.1795C3.64003 14.8759 3.75 14.519 3.75 14.1538C3.75 13.6642 3.55246 13.1946 3.20083 12.8484C2.8492 12.5022 2.37228 12.3077 1.875 12.3077ZM19.375 12.9231H6.875C6.70924 12.9231 6.55027 12.9879 6.43306 13.1033C6.31585 13.2187 6.25 13.3753 6.25 13.5385V14.7692C6.25 14.9324 6.31585 15.089 6.43306 15.2044C6.55027 15.3198 6.70924 15.3846 6.875 15.3846H19.375C19.5408 15.3846 19.6997 15.3198 19.8169 15.2044C19.9342 15.089 20 14.9324 20 14.7692V13.5385C20 13.3753 19.9342 13.2187 19.8169 13.1033C19.6997 12.9879 19.5408 12.9231 19.375 12.9231ZM19.375 0.615385H6.875C6.70924 0.615385 6.55027 0.68022 6.43306 0.795627C6.31585 0.911034 6.25 1.06756 6.25 1.23077V2.46154C6.25 2.62475 6.31585 2.78127 6.43306 2.89668C6.55027 3.01209 6.70924 3.07692 6.875 3.07692H19.375C19.5408 3.07692 19.6997 3.01209 19.8169 2.89668C19.9342 2.78127 20 2.62475 20 2.46154V1.23077C20 1.06756 19.9342 0.911034 19.8169 0.795627C19.6997 0.68022 19.5408 0.615385 19.375 0.615385ZM19.375 6.76923H6.875C6.70924 6.76923 6.55027 6.83407 6.43306 6.94947C6.31585 7.06488 6.25 7.22141 6.25 7.38461V8.61538C6.25 8.77859 6.31585 8.93512 6.43306 9.05053C6.55027 9.16593 6.70924 9.23077 6.875 9.23077H19.375C19.5408 9.23077 19.6997 9.16593 19.8169 9.05053C19.9342 8.93512 20 8.77859 20 8.61538V7.38461C20 7.22141 19.9342 7.06488 19.8169 6.94947C19.6997 6.83407 19.5408 6.76923 19.375 6.76923Z" fill="#D0D0D0"/>
</svg>
