<svg width="14" height="14" viewBox="0 0 14 14" fill="none" xmlns="http://www.w3.org/2000/svg">
<path d="M13.3746 10.9503L9.73809 7.31371L13.3746 3.67716C13.8209 3.23092 13.8209 2.50715 13.3746 2.06092L12.5665 1.25279C12.1203 0.806558 11.3965 0.806558 10.9503 1.25279L7.31372 4.88934L3.67717 1.25279C3.23094 0.806558 2.50716 0.806558 2.06093 1.25279L1.25281 2.06092C0.80657 2.50715 0.80657 3.23092 1.25281 3.67716L4.88935 7.31371L1.25281 10.9503C0.80657 11.3965 0.80657 12.1203 1.25281 12.5665L2.06093 13.3746C2.50716 13.8209 3.23094 13.8209 3.67717 13.3746L7.31372 9.73807L10.9503 13.3746C11.3965 13.8209 12.1203 13.8209 12.5665 13.3746L13.3746 12.5665C13.8209 12.1203 13.8209 11.3965 13.3746 10.9503Z" fill="#F0F0F0"/>
</svg>
