<svg width="20" height="20" viewBox="0 0 20 20" fill="none" xmlns="http://www.w3.org/2000/svg">
<path d="M10 0C4.47702 0 0 4.47702 0 10C0 15.523 4.47702 20 10 20C15.523 20 20 15.523 20 10C20 4.47702 15.523 0 10 0ZM13.3181 14.4194C13.1609 14.5758 12.996 14.7399 12.8621 14.8742C12.7415 14.9952 12.6565 15.1444 12.6133 15.306C12.5524 15.5343 12.5032 15.7649 12.421 15.9863L11.7198 17.8754C11.1649 17.9964 10.5907 18.0645 10 18.0645V16.9605C10.0681 16.4516 9.69193 15.4984 9.0875 14.894C8.84556 14.652 8.70968 14.3238 8.70968 13.9815V12.6907C8.70968 12.2214 8.45685 11.7899 8.04597 11.5629C7.46653 11.2423 6.64234 10.7944 6.07782 10.5101C5.61492 10.277 5.18669 9.98024 4.80161 9.63306L4.76935 9.60403C4.49398 9.35546 4.24948 9.07468 4.04113 8.76774C3.6629 8.2125 3.04677 7.29919 2.64637 6.70565C3.47177 4.87097 4.95927 3.39758 6.80766 2.59718L7.77581 3.08145C8.20484 3.29597 8.70968 2.98427 8.70968 2.50444V2.04879C9.03185 1.99677 9.35968 1.96371 9.69314 1.95121L10.8343 3.09234C11.0863 3.34435 11.0863 3.75282 10.8343 4.00484L10.6452 4.19355L10.2282 4.61048C10.1024 4.73629 10.1024 4.94073 10.2282 5.06653L10.4173 5.25564C10.5431 5.38145 10.5431 5.58589 10.4173 5.71169L10.0948 6.03427C10.0342 6.09472 9.9521 6.12866 9.86653 6.12863H9.50403C9.42016 6.12863 9.33952 6.16129 9.27903 6.22016L8.87903 6.60927C8.83 6.65702 8.79741 6.71911 8.78596 6.78659C8.7745 6.85406 8.78479 6.92343 8.81532 6.98468L9.44395 8.24234C9.55121 8.45685 9.39516 8.70927 9.15564 8.70927H8.92823C8.8504 8.70927 8.7754 8.68105 8.71694 8.63024L8.34274 8.30524C8.25806 8.23178 8.15572 8.18163 8.04579 8.15971C7.93585 8.13779 7.8221 8.14487 7.71573 8.18024L6.45887 8.59919C6.36291 8.63119 6.27946 8.69257 6.22033 8.77464C6.16121 8.85671 6.1294 8.9553 6.12944 9.05645C6.12944 9.23911 6.23266 9.40564 6.39597 9.4875L6.84274 9.71089C7.22218 9.90081 7.64073 9.9996 8.06492 9.9996C8.48911 9.9996 8.97581 11.1 9.35524 11.2899H12.0468C12.3891 11.2899 12.7169 11.4258 12.9593 11.6677L13.5113 12.2198C13.7419 12.4505 13.8714 12.7633 13.8714 13.0895C13.8713 13.3367 13.8224 13.5814 13.7274 13.8096C13.6325 14.0378 13.4934 14.2451 13.3181 14.4194ZM16.8145 10.7359C16.581 10.6774 16.3774 10.5343 16.244 10.3339L15.519 9.24637C15.4129 9.08748 15.3563 8.90072 15.3563 8.70968C15.3563 8.51863 15.4129 8.33187 15.519 8.17298L16.3089 6.98831C16.4024 6.84839 16.5306 6.73468 16.6815 6.65968L17.2048 6.39798C17.75 7.48347 18.0645 8.70444 18.0645 10C18.0645 10.3496 18.0347 10.6919 17.9911 11.0298L16.8145 10.7359Z" fill="#D0D0D0"/>
</svg>
