<svg width="20" height="20" viewBox="0 0 20 20" fill="none" xmlns="http://www.w3.org/2000/svg">
<path d="M10 0C4.47754 0 0 4.47915 0 10C0 15.5241 4.47754 20 10 20C15.5225 20 20 15.5241 20 10C20 4.47915 15.5225 0 10 0ZM10 18.0645C5.54306 18.0645 1.93548 14.4584 1.93548 10C1.93548 5.54456 5.54323 1.93548 10 1.93548C14.4553 1.93548 18.0645 5.54319 18.0645 10C18.0645 14.4569 14.4584 18.0645 10 18.0645ZM14.3244 7.77419C14.3244 10.4779 11.4042 10.5195 11.4042 11.5187V11.7742C11.4042 12.0414 11.1875 12.2581 10.9203 12.2581H9.07968C8.81246 12.2581 8.59581 12.0414 8.59581 11.7742V11.425C8.59581 9.98371 9.68855 9.40754 10.5143 8.94456C11.2224 8.54758 11.6564 8.27758 11.6564 7.75185C11.6564 7.05645 10.7694 6.59488 10.0522 6.59488C9.11718 6.59488 8.68552 7.0375 8.07875 7.80331C7.91516 8.00976 7.61665 8.0481 7.40673 7.88895L6.2848 7.03823C6.07887 6.8821 6.03274 6.59202 6.17818 6.37843C7.13089 4.97948 8.34435 4.19355 10.2336 4.19355C12.2123 4.19355 14.3244 5.73806 14.3244 7.77419ZM11.6935 14.5161C11.6935 15.45 10.9338 16.2097 10 16.2097C9.06617 16.2097 8.30645 15.45 8.30645 14.5161C8.30645 13.5823 9.06617 12.8226 10 12.8226C10.9338 12.8226 11.6935 13.5823 11.6935 14.5161Z" fill="#D0D0D0"/>
</svg>
