<svg width="10" height="10" viewBox="0 0 10 10" fill="none" xmlns="http://www.w3.org/2000/svg">
<path d="M9.0918 4.25176L9.58728 4.74724C9.79708 4.95704 9.79708 5.29628 9.58728 5.50385L5.25071 9.84265C5.04091 10.0524 4.70166 10.0524 4.4941 9.84265L0.157528 5.50608C-0.0522695 5.29628 -0.0522695 4.95703 0.157528 4.74947L0.65301 4.25399C0.865039 4.04196 1.21098 4.04642 1.41855 4.26292L3.97853 6.95012L3.97853 0.535654C3.97853 0.238812 4.21734 -4.83211e-07 4.51419 -4.5726e-07L5.22839 -3.94822e-07C5.52523 -3.68871e-07 5.76405 0.238812 5.76405 0.535654L5.76405 6.95012L8.32626 4.26068C8.53383 4.04196 8.87977 4.0375 9.0918 4.25176Z" fill="black"/>
</svg>
