<svg width="10" height="10" viewBox="0 0 10 10" fill="none" xmlns="http://www.w3.org/2000/svg">
<path d="M0.652829 5.74824L0.157349 5.25276C-0.0524495 5.04296 -0.0524495 4.70372 0.157349 4.49615L4.49392 0.157349C4.70372 -0.0524495 5.04296 -0.0524495 5.25053 0.157349L9.5871 4.49392C9.7969 4.70372 9.7969 5.04296 9.5871 5.25053L9.09162 5.74601C8.87959 5.95804 8.53365 5.95358 8.32608 5.73708L5.7661 3.04988V9.46435C5.7661 9.76119 5.52729 10 5.23044 10H4.51624C4.2194 10 3.98058 9.76119 3.98058 9.46435V3.04988L1.41837 5.73932C1.2108 5.95804 0.864859 5.9625 0.652829 5.74824Z" fill="black"/>
</svg>
