<svg width="10" height="16" viewBox="0 0 10 16" fill="none" xmlns="http://www.w3.org/2000/svg">
<path d="M1.90475 15.9999C2.95672 15.9999 3.80951 15.1472 3.80951 14.0952C3.80951 13.0432 2.95672 12.1904 1.90475 12.1904C0.852788 12.1904 0 13.0432 0 14.0952C0 15.1472 0.852788 15.9999 1.90475 15.9999Z" fill="#B0B0B0"/>
<path d="M7.99997 15.9999C9.05194 15.9999 9.90472 15.1472 9.90472 14.0952C9.90472 13.0432 9.05194 12.1904 7.99997 12.1904C6.948 12.1904 6.09521 13.0432 6.09521 14.0952C6.09521 15.1472 6.948 15.9999 7.99997 15.9999Z" fill="#B0B0B0"/>
<path d="M1.90475 3.80951C2.95672 3.80951 3.80951 2.95672 3.80951 1.90475C3.80951 0.852788 2.95672 0 1.90475 0C0.852788 0 0 0.852788 0 1.90475C0 2.95672 0.852788 3.80951 1.90475 3.80951Z" fill="#B0B0B0"/>
<path d="M1.90475 9.9046C2.95672 9.9046 3.80951 9.05181 3.80951 7.99985C3.80951 6.94788 2.95672 6.09509 1.90475 6.09509C0.852788 6.09509 0 6.94788 0 7.99985C0 9.05181 0.852788 9.9046 1.90475 9.9046Z" fill="#B0B0B0"/>
<path d="M7.99997 3.80951C9.05194 3.80951 9.90472 2.95672 9.90472 1.90475C9.90472 0.852788 9.05194 0 7.99997 0C6.948 0 6.09521 0.852788 6.09521 1.90475C6.09521 2.95672 6.948 3.80951 7.99997 3.80951Z" fill="#B0B0B0"/>
<path d="M7.99997 9.9046C9.05194 9.9046 9.90472 9.05181 9.90472 7.99985C9.90472 6.94788 9.05194 6.09509 7.99997 6.09509C6.948 6.09509 6.09521 6.94788 6.09521 7.99985C6.09521 9.05181 6.948 9.9046 7.99997 9.9046Z" fill="#B0B0B0"/>
</svg>
