<svg width="20" height="20" viewBox="0 0 20 20" fill="none" xmlns="http://www.w3.org/2000/svg">
<path d="M18.2474 1.75173C15.804 -0.688884 11.9322 -0.778727 8.39274 2.75681C5.32205 5.82398 6.01072 5.13648 5.04314 6.10289C2.68143 8.46186 2.29355 11.9947 2.55722 14.3517L9.5275 7.38882C9.77203 7.14468 10.1681 7.14468 10.4123 7.38882C10.6564 7.63296 10.6564 8.02866 10.4123 8.2728L0.274804 18.3997C-0.0916012 18.7657 -0.0916012 19.3595 0.274804 19.7255C0.641208 20.0915 1.23574 20.0915 1.60214 19.7255L4.18416 17.1462C6.22712 17.7599 10.8982 17.856 13.8259 15.0001H9.99039L15.7548 13.0806C17.7075 11.1302 17.1759 11.6673 17.5638 11.2501H13.7443L18.8825 9.5392C20.6575 6.63062 20.2228 3.72516 18.2474 1.75173Z" fill="#D0D0D0"/>
</svg>
