<svg width="16" height="16" viewBox="0 0 16 16" fill="none" xmlns="http://www.w3.org/2000/svg">
<path fill-rule="evenodd" clip-rule="evenodd" d="M13.2989 10.8804C13.2561 10.6445 13.285 10.4012 13.3818 10.1818C13.474 9.96671 13.6271 9.78326 13.8222 9.65404C14.0173 9.52482 14.246 9.45548 14.48 9.45455H14.5455C14.9312 9.45455 15.3012 9.3013 15.574 9.02852C15.8468 8.75574 16 8.38577 16 8C16 7.61423 15.8468 7.24426 15.574 6.97148C15.3012 6.6987 14.9312 6.54545 14.5455 6.54545H14.4218C14.1878 6.54452 13.9591 6.47518 13.764 6.34596C13.5689 6.21674 13.4158 6.03329 13.3236 5.81818V5.76C13.2268 5.54064 13.1979 5.29731 13.2407 5.06139C13.2835 4.82547 13.396 4.60777 13.5636 4.43636L13.6073 4.39273C13.7425 4.25764 13.8498 4.09722 13.923 3.92064C13.9962 3.74406 14.0339 3.55479 14.0339 3.36364C14.0339 3.17249 13.9962 2.98321 13.923 2.80663C13.8498 2.63005 13.7425 2.46963 13.6073 2.33455C13.4722 2.19931 13.3118 2.09202 13.1352 2.01882C12.9586 1.94562 12.7693 1.90795 12.5782 1.90795C12.387 1.90795 12.1978 1.94562 12.0212 2.01882C11.8446 2.09202 11.6842 2.19931 11.5491 2.33455L11.5055 2.37818C11.3341 2.54585 11.1164 2.65832 10.8804 2.70109C10.6445 2.74387 10.4012 2.71499 10.1818 2.61818C9.96671 2.52599 9.78326 2.37291 9.65404 2.17779C9.52482 1.98267 9.45548 1.75403 9.45455 1.52V1.45455C9.45455 1.06878 9.3013 0.698807 9.02852 0.426027C8.75574 0.153246 8.38577 0 8 0C7.61423 0 7.24426 0.153246 6.97148 0.426027C6.6987 0.698807 6.54545 1.06878 6.54545 1.45455V1.57818C6.54452 1.81221 6.47518 2.04085 6.34596 2.23597C6.21674 2.43109 6.03329 2.58417 5.81818 2.67636H5.76C5.54064 2.77317 5.29731 2.80205 5.06139 2.75928C4.82547 2.7165 4.60777 2.60403 4.43636 2.43636L4.39273 2.39273C4.25764 2.25749 4.09722 2.1502 3.92064 2.077C3.74406 2.00381 3.55479 1.96613 3.36364 1.96613C3.17249 1.96613 2.98321 2.00381 2.80663 2.077C2.63005 2.1502 2.46963 2.25749 2.33455 2.39273C2.19931 2.52782 2.09202 2.68824 2.01882 2.86481C1.94562 3.04139 1.90795 3.23067 1.90795 3.42182C1.90795 3.61297 1.94562 3.80224 2.01882 3.97882C2.09202 4.1554 2.19931 4.31582 2.33455 4.45091L2.37818 4.49455C2.54585 4.66595 2.65832 4.88365 2.70109 5.11957C2.74387 5.3555 2.71499 5.59882 2.61818 5.81818C2.53507 6.04417 2.38589 6.23993 2.19004 6.38001C1.99419 6.52009 1.76072 6.59801 1.52 6.60364H1.45455C1.06878 6.60364 0.698807 6.75688 0.426027 7.02966C0.153246 7.30244 0 7.67241 0 8.05818C0 8.44395 0.153246 8.81392 0.426027 9.0867C0.698807 9.35948 1.06878 9.51273 1.45455 9.51273H1.57818C1.81221 9.51366 2.04085 9.583 2.23597 9.71222C2.43109 9.84144 2.58417 10.0249 2.67636 10.24C2.77317 10.4594 2.80205 10.7027 2.75928 10.9386C2.7165 11.1745 2.60403 11.3922 2.43636 11.5636L2.39273 11.6073C2.25749 11.7424 2.1502 11.9028 2.077 12.0794C2.00381 12.2559 1.96613 12.4452 1.96613 12.6364C1.96613 12.8275 2.00381 13.0168 2.077 13.1934C2.1502 13.3699 2.25749 13.5304 2.39273 13.6655C2.52782 13.8007 2.68824 13.908 2.86481 13.9812C3.04139 14.0544 3.23067 14.0921 3.42182 14.0921C3.61297 14.0921 3.80224 14.0544 3.97882 13.9812C4.1554 13.908 4.31582 13.8007 4.45091 13.6655L4.49455 13.6218C4.66595 13.4542 4.88365 13.3417 5.11957 13.2989C5.3555 13.2561 5.59882 13.285 5.81818 13.3818C6.04417 13.4649 6.23993 13.6141 6.38001 13.81C6.52009 14.0058 6.59801 14.2393 6.60364 14.48V14.5455C6.60364 14.9312 6.75688 15.3012 7.02966 15.574C7.30244 15.8468 7.67241 16 8.05818 16C8.44395 16 8.81392 15.8468 9.0867 15.574C9.35948 15.3012 9.51273 14.9312 9.51273 14.5455V14.4218C9.51366 14.1878 9.583 13.9591 9.71222 13.764C9.84144 13.5689 10.0249 13.4158 10.24 13.3236C10.4594 13.2268 10.7027 13.1979 10.9386 13.2407C11.1745 13.2835 11.3922 13.396 11.5636 13.5636L11.6073 13.6073C11.7424 13.7425 11.9028 13.8498 12.0794 13.923C12.2559 13.9962 12.4452 14.0339 12.6364 14.0339C12.8275 14.0339 13.0168 13.9962 13.1934 13.923C13.3699 13.8498 13.5304 13.7425 13.6655 13.6073C13.8007 13.4722 13.908 13.3118 13.9812 13.1352C14.0544 12.9586 14.0921 12.7693 14.0921 12.5782C14.0921 12.387 14.0544 12.1978 13.9812 12.0212C13.908 11.8446 13.8007 11.6842 13.6655 11.5491L13.6218 11.5055C13.4542 11.3341 13.3417 11.1164 13.2989 10.8804ZM10.1817 8.00004C10.1817 9.20502 9.20488 10.1819 7.9999 10.1819C6.79491 10.1819 5.81808 9.20502 5.81808 8.00004C5.81808 6.79505 6.79491 5.81822 7.9999 5.81822C9.20488 5.81822 10.1817 6.79505 10.1817 8.00004Z" fill="#252525"/>
</svg>
