<svg width="20" height="20" viewBox="0 0 20 20" fill="none" xmlns="http://www.w3.org/2000/svg">
<g id="&#240;&#159;&#166;&#134; icon &#34;History&#34;">
<path id="Vector" d="M20 9.98111C20.0102 15.4908 15.517 19.9961 10.0073 20C7.62764 20.0017 5.44182 19.1722 3.72412 17.7858C3.27747 17.4254 3.24408 16.756 3.64997 16.3501L4.10428 15.8958C4.45142 15.5486 5.00561 15.5106 5.39021 15.8158C6.65574 16.82 8.25731 17.4194 10 17.4194C14.101 17.4194 17.4194 14.1004 17.4194 10C17.4194 5.899 14.1004 2.58065 10 2.58065C8.03171 2.58065 6.244 3.34553 4.91662 4.59404L6.96316 6.64058C7.36961 7.04703 7.08175 7.74195 6.50699 7.74195H0.645163C0.288831 7.74195 0 7.45312 0 7.09679V1.23496C0 0.660203 0.694921 0.372339 1.10137 0.778751L3.09218 2.76956C4.88747 1.05387 7.32066 0 10 0C15.5166 0 19.9898 4.46694 20 9.98111ZM12.7052 13.1579L13.1013 12.6486C13.4294 12.2267 13.3534 11.6187 12.9315 11.2906L11.2903 10.0141V5.80646C11.2903 5.27199 10.8571 4.83872 10.3226 4.83872H9.67744C9.14296 4.83872 8.70969 5.27199 8.70969 5.80646V11.2763L11.3472 13.3276C11.7691 13.6558 12.377 13.5798 12.7052 13.1579Z" fill="#AAAAAA"/>
</g>
</svg>
