<svg width="17" height="20" viewBox="0 0 17 20" fill="none" xmlns="http://www.w3.org/2000/svg">
<path d="M16.3929 1.25001H11.8393L11.4826 0.519538C11.407 0.363372 11.2906 0.232008 11.1465 0.140225C11.0024 0.0484421 10.8362 -0.00011828 10.6667 6.84872e-06H6.32946C6.16037 -0.000662313 5.99451 0.047717 5.85089 0.139602C5.70726 0.231487 5.59169 0.363161 5.51741 0.519538L5.16071 1.25001H0.607143C0.446119 1.25001 0.291689 1.31585 0.177828 1.43306C0.0639667 1.55027 0 1.70925 0 1.87501L0 3.12501C0 3.29077 0.0639667 3.44974 0.177828 3.56695C0.291689 3.68416 0.446119 3.75001 0.607143 3.75001H16.3929C16.5539 3.75001 16.7083 3.68416 16.8222 3.56695C16.936 3.44974 17 3.29077 17 3.12501V1.87501C17 1.70925 16.936 1.55027 16.8222 1.43306C16.7083 1.31585 16.5539 1.25001 16.3929 1.25001ZM2.01875 18.2422C2.04771 18.7182 2.2518 19.165 2.58949 19.4915C2.92717 19.8181 3.37306 19.9999 3.83638 20H13.1636C13.6269 19.9999 14.0728 19.8181 14.4105 19.4915C14.7482 19.165 14.9523 18.7182 14.9812 18.2422L15.7857 5H1.21429L2.01875 18.2422Z" fill="#D0D0D0"/>
</svg>
